<!-- Generated by IcoMoon.io -->
<svg version="1.1" xmlns="http://www.w3.org/2000/svg" width="32" height="32" viewBox="0 0 32 32">
<title>cross</title>
<path fill="#7c2d7d" d="M16 32c8.837 0 16-7.163 16-16s-7.163-16-16-16c-8.837 0-16 7.163-16 16s7.163 16 16 16z"></path>
<path fill="#fff" d="M23.020 8.473c0.893 0.893 0.893 2.34 0 3.232l-11.314 11.314c-0.893 0.893-2.34 0.893-3.232 0s-0.893-2.34 0-3.233l11.314-11.314c0.893-0.893 2.34-0.893 3.233 0z"></path>
<path fill="#fff" d="M8.474 8.473c-0.893 0.893-0.893 2.34 0 3.232l11.314 11.314c0.893 0.893 2.34 0.893 3.233 0s0.893-2.34 0-3.233l-11.314-11.314c-0.893-0.893-2.34-0.893-3.232 0z"></path>
</svg>
