<!-- Generated by IcoMoon.io -->
<svg version="1.1" xmlns="http://www.w3.org/2000/svg" width="32" height="32" viewBox="0 0 32 32">
<title>facebook</title>
<path fill="#953095" d="M16 32c8.837 0 16-7.163 16-16s-7.163-16-16-16c-8.837 0-16 7.163-16 16s7.163 16 16 16z"></path>
<path fill="#fff" d="M12.7 16.464h1.736v6.418c0 0.127 0.114 0.229 0.255 0.229h2.943c0.141 0 0.255-0.103 0.255-0.229v-6.388h1.996c0.13 0 0.239-0.087 0.254-0.203l0.303-2.363c0.008-0.065-0.015-0.13-0.063-0.179s-0.118-0.077-0.191-0.077h-2.299v-1.481c0-0.447 0.268-0.673 0.796-0.673 0.075 0 1.503 0 1.503 0 0.141 0 0.255-0.103 0.255-0.229v-2.169c0-0.127-0.114-0.229-0.255-0.229h-2.071c-0.015-0.001-0.047-0.002-0.095-0.002-0.359 0-1.609 0.063-2.595 0.879-1.093 0.903-0.941 1.985-0.905 2.173v1.732h-1.822c-0.141 0-0.255 0.103-0.255 0.229v2.333c0 0.127 0.114 0.229 0.255 0.229z"></path>
</svg>
