<!-- Generated by IcoMoon.io -->
<svg version="1.1" xmlns="http://www.w3.org/2000/svg" width="32" height="32" viewBox="0 0 32 32">
<title>instagram</title>
<path fill="#953095" d="M16 32c8.837 0 16-7.163 16-16s-7.163-16-16-16c-8.837 0-16 7.163-16 16s7.163 16 16 16z"></path>
<path fill="#fff" d="M12.262 6.222h8.364c2.841 0 5.152 2.311 5.151 5.151v8.364c0 2.84-2.311 5.151-5.151 5.151h-8.364c-2.84 0-5.151-2.311-5.151-5.151v-8.364c0-2.84 2.311-5.151 5.151-5.151zM20.627 23.233c1.927 0 3.495-1.568 3.495-3.495v0-8.364c0-1.927-1.568-3.495-3.495-3.495h-8.364c-1.927 0-3.495 1.568-3.495 3.495v8.364c0 1.927 1.568 3.495 3.495 3.495h8.364z"></path>
<path fill="#fff" d="M11.556 15.556c0-2.696 2.193-4.889 4.889-4.889s4.889 2.193 4.889 4.889c0 2.696-2.193 4.889-4.889 4.889s-4.889-2.193-4.889-4.889zM13.239 15.556c0 1.767 1.438 3.205 3.205 3.205s3.206-1.438 3.206-3.205c0-1.768-1.438-3.206-3.206-3.206s-3.206 1.438-3.206 3.206z"></path>
<path fill="#fff" d="M21.778 8.889c-0.35 0-0.694 0.142-0.942 0.39-0.249 0.247-0.392 0.591-0.392 0.943 0 0.35 0.143 0.695 0.392 0.943 0.247 0.247 0.591 0.39 0.942 0.39 0.352 0 0.695-0.143 0.943-0.39s0.39-0.593 0.39-0.943c0-0.352-0.142-0.696-0.39-0.943-0.247-0.249-0.591-0.39-0.943-0.39z"></path>
</svg>
