<!-- Generated by IcoMoon.io -->
<svg version="1.1" xmlns="http://www.w3.org/2000/svg" width="32" height="32" viewBox="0 0 32 32">
<title>linkedin</title>
<path fill="#953095" d="M16 32c8.837 0 16-7.163 16-16s-7.163-16-16-16c-8.837 0-16 7.163-16 16s7.163 16 16 16z"></path>
<path fill="#fff" d="M11.566 8.889c-1.081 0-1.788 0.768-1.788 1.778 0 0.987 0.686 1.778 1.747 1.778h0.021c1.102 0 1.788-0.79 1.788-1.778-0.021-1.010-0.686-1.778-1.767-1.778z"></path>
<path fill="#fff" d="M9.778 13.333h3.556v8h-3.556v-8z"></path>
<path fill="#fff" d="M20.648 13.333c-1.571 0-2.624 1.317-2.624 1.317v-1.134h-2.912v7.817h2.912v-4.365c0-0.234 0.019-0.467 0.096-0.634 0.21-0.467 0.689-0.95 1.494-0.95 1.054 0 1.475 0.717 1.475 1.768v4.182h2.912v-4.482c0-2.401-1.437-3.518-3.352-3.518z"></path>
</svg>
