<!-- Generated by IcoMoon.io -->
<svg version="1.1" xmlns="http://www.w3.org/2000/svg" width="32" height="32" viewBox="0 0 32 32">
<title>magnifying-glass</title>
<path d="M31.413 28.741l-8.761-8.765c1.571-2.142 2.412-4.732 2.4-7.387-0.030-6.933-5.637-12.549-12.57-12.589-3.318-0.015-6.504 1.298-8.848 3.645s-3.653 5.535-3.633 8.853c0.030 6.934 5.638 12.55 12.571 12.59 2.667 0.011 5.266-0.84 7.409-2.426l0.009-0.007 8.753 8.758c0.473 0.496 1.178 0.697 1.842 0.525s1.182-0.691 1.354-1.355-0.030-1.369-0.527-1.842zM12.563 22.578c-5.546-0.032-10.033-4.524-10.057-10.071-0.015-2.654 1.032-5.204 2.907-7.082s4.423-2.928 7.077-2.917c5.546 0.032 10.033 4.524 10.057 10.071 0.015 2.654-1.032 5.204-2.907 7.082s-4.423 2.928-7.077 2.917z"></path>
</svg>
