<!-- Generated by IcoMoon.io -->
<svg version="1.1" xmlns="http://www.w3.org/2000/svg" width="34" height="32" viewBox="0 0 34 32">
<title>selfie</title>
<path d="M13.419 13.419c-1.708 0-3.097-1.621-3.097-3.613s1.389-3.613 3.097-3.613c1.708 0 3.097 1.621 3.097 3.613s-1.389 3.613-3.097 3.613z"></path>
<path d="M22.194 11.355c-1.423 0-2.581-1.158-2.581-2.581s1.158-2.581 2.581-2.581c1.423 0 2.581 1.158 2.581 2.581s-1.158 2.581-2.581 2.581z"></path>
<path d="M25.005 20.645h-3.803c-0.268 0-0.485-0.243-0.485-0.542v-0.375c0-1.639-0.642-3.188-1.761-4.249-0.056-0.053-0.116-0.107-0.187-0.168-0.204-0.175-0.25-0.498-0.105-0.736 0.836-1.37 2.218-2.187 3.698-2.187 2.468 0 4.476 2.246 4.476 5.006v0.902c0 1.151-0.735 2.135-1.747 2.341-0.029 0.006-0.058 0.009-0.087 0.009z"></path>
<path d="M17.186 23.742h-7.533c-0.030 0-0.060-0.002-0.090-0.007-1.354-0.225-2.337-1.303-2.337-2.563v-1.052c0-1.739 0.854-3.357 2.343-4.44 1.105-0.804 2.436-1.228 3.85-1.228 1.377 0 2.682 0.406 3.772 1.173 0.086 0.060 0.162 0.116 0.232 0.171 1.392 1.080 2.19 2.656 2.19 4.325v1.052c0 1.26-0.983 2.337-2.337 2.563-0.030 0.005-0.060 0.007-0.090 0.007z"></path>
<path stroke-linejoin="miter" stroke-linecap="butt" stroke-miterlimit="4" stroke-width="1.0323" stroke="#000" fill="#000" d="M1.032 23.27c0-0.472 0.387-0.855 0.865-0.855s0.865 0.383 0.865 0.855v3.421c0 1.417 1.162 2.566 2.595 2.566h3.459c0.478 0 0.865 0.383 0.865 0.855s-0.387 0.855-0.865 0.855h-3.459c-2.388 0-4.324-1.915-4.324-4.277v-3.421z"></path>
<path stroke-linejoin="miter" stroke-linecap="butt" stroke-miterlimit="4" stroke-width="1.0323" stroke="#000" fill="#000" d="M33.032 23.27c0-0.472-0.387-0.855-0.865-0.855s-0.865 0.383-0.865 0.855v3.421c0 1.417-1.162 2.566-2.595 2.566h-3.459c-0.478 0-0.865 0.383-0.865 0.855s0.387 0.855 0.865 0.855h3.459c2.388 0 4.324-1.915 4.324-4.277v-3.421z"></path>
<path stroke-linejoin="miter" stroke-linecap="butt" stroke-miterlimit="4" stroke-width="1.0323" stroke="#000" fill="#000" d="M1.032 8.73c0 0.472 0.387 0.855 0.865 0.855s0.865-0.383 0.865-0.855v-3.421c0-1.417 1.162-2.566 2.595-2.566h3.459c0.478 0 0.865-0.383 0.865-0.855s-0.387-0.855-0.865-0.855h-3.459c-2.388 0-4.324 1.915-4.324 4.277v3.421z"></path>
<path stroke-linejoin="miter" stroke-linecap="butt" stroke-miterlimit="4" stroke-width="1.0323" stroke="#000" fill="#000" d="M33.032 8.73c0 0.472-0.387 0.855-0.865 0.855s-0.865-0.383-0.865-0.855v-3.421c0-1.417-1.162-2.566-2.595-2.566h-3.459c-0.478 0-0.865-0.383-0.865-0.855s0.387-0.855 0.865-0.855h3.459c2.388 0 4.324 1.915 4.324 4.277v3.421z"></path>
</svg>
