<!-- Generated by IcoMoon.io -->
<svg version="1.1" xmlns="http://www.w3.org/2000/svg" width="32" height="32" viewBox="0 0 32 32">
<title>share</title>
<path fill="#953095" d="M16 32c8.837 0 16-7.163 16-16s-7.163-16-16-16c-8.837 0-16 7.163-16 16s7.163 16 16 16z"></path>
<path fill="#fff" d="M19.635 18.737c-0.738 0-1.402 0.316-1.873 0.82l-5.508-2.743c0.019-0.128 0.032-0.259 0.032-0.393 0-0.131-0.012-0.258-0.030-0.384l5.499-2.712c0.472 0.508 1.138 0.827 1.88 0.827 1.429 0 2.587-1.178 2.587-2.631s-1.158-2.632-2.587-2.632c-1.429 0-2.588 1.178-2.588 2.632 0 0.131 0.012 0.258 0.030 0.384l-5.499 2.712c-0.472-0.508-1.138-0.827-1.88-0.827-1.43 0-2.588 1.178-2.588 2.631s1.158 2.632 2.587 2.632c0.738 0 1.402-0.316 1.873-0.82l5.507 2.743c-0.019 0.128-0.032 0.259-0.032 0.393 0 1.454 1.158 2.632 2.587 2.632s2.588-1.178 2.588-2.632c0-1.454-1.158-2.631-2.587-2.631z"></path>
</svg>
