<!-- Generated by IcoMoon.io -->
<svg version="1.1" xmlns="http://www.w3.org/2000/svg" width="32" height="32" viewBox="0 0 32 32">
<title>telegram</title>
<path fill="#953095" d="M16 32c8.837 0 16-7.163 16-16s-7.163-16-16-16c-8.837 0-16 7.163-16 16s7.163 16 16 16z"></path>
<path fill="#fff" d="M11.749 17.488l-3.482-1.317c-0.354-0.134-0.357-0.64-0.004-0.778l14.29-5.587c0.303-0.119 0.615 0.15 0.549 0.473l-2.564 12.501c-0.060 0.295-0.402 0.429-0.643 0.251l-3.501-2.576c-0.213-0.156-0.502-0.148-0.706 0.020l-1.941 1.603c-0.225 0.187-0.565 0.083-0.651-0.199l-1.348-4.392zM19.684 12.54l-6.805 4.247c-0.261 0.163-0.384 0.482-0.299 0.781l0.736 2.62c0.052 0.186 0.318 0.167 0.343-0.025l0.191-1.437c0.036-0.27 0.163-0.52 0.361-0.706l5.616-5.29c0.105-0.099-0.021-0.266-0.143-0.19z"></path>
</svg>
