<!-- Generated by IcoMoon.io -->
<svg version="1.1" xmlns="http://www.w3.org/2000/svg" width="32" height="32" viewBox="0 0 32 32">
<title>twitter</title>
<path fill="#953095" d="M16 32c8.837 0 16-7.163 16-16s-7.163-16-16-16c-8.837 0-16 7.163-16 16s7.163 16 16 16z"></path>
<path fill="#fff" d="M24 11.929c-0.523 0.214-1.085 0.359-1.675 0.424 0.603-0.333 1.064-0.862 1.282-1.489-0.565 0.309-1.189 0.533-1.854 0.654-0.532-0.524-1.29-0.851-2.129-0.851-1.611 0-2.918 1.206-2.918 2.693 0 0.211 0.026 0.417 0.076 0.614-2.424-0.112-4.574-1.185-6.013-2.815-0.252 0.397-0.395 0.86-0.395 1.354 0 0.935 0.515 1.759 1.297 2.242-0.478-0.015-0.928-0.136-1.322-0.338v0.034c0 1.305 1.006 2.394 2.34 2.641-0.244 0.061-0.502 0.094-0.769 0.094-0.188 0-0.371-0.017-0.549-0.050 0.371 1.071 1.449 1.849 2.725 1.871-0.998 0.722-2.256 1.151-3.623 1.151-0.236 0-0.468-0.013-0.696-0.037 1.291 0.766 2.824 1.212 4.472 1.212 5.367 0 8.301-4.105 8.301-7.664l-0.010-0.349c0.573-0.377 1.069-0.852 1.459-1.392z"></path>
</svg>
