<!-- Generated by IcoMoon.io -->
<svg version="1.1" xmlns="http://www.w3.org/2000/svg" width="24" height="32" viewBox="0 0 24 32">
<title>user</title>
<path d="M12.191 12.19c-3.361 0-6.095-2.734-6.095-6.095s2.734-6.095 6.095-6.095c3.361 0 6.095 2.734 6.095 6.095s-2.734 6.095-6.095 6.095z"></path>
<path d="M19.604 32h-14.827c-0.060 0-0.119-0.005-0.178-0.013-2.665-0.406-4.599-2.351-4.599-4.624v-1.898c0-3.137 1.681-6.057 4.612-8.011 2.175-1.45 4.795-2.216 7.578-2.216 2.711 0 5.278 0.732 7.424 2.117 0.169 0.109 0.319 0.21 0.457 0.308 2.739 1.949 4.31 4.793 4.31 7.802v1.898c0 2.273-1.934 4.217-4.599 4.624-0.058 0.009-0.118 0.013-0.178 0.013z"></path>
</svg>
