<!-- Generated by IcoMoon.io -->
<svg version="1.1" xmlns="http://www.w3.org/2000/svg" width="32" height="32" viewBox="0 0 32 32">
<title>vk</title>
<path fill="#953095" d="M16 32c8.837 0 16-7.163 16-16s-7.163-16-16-16c-8.837 0-16 7.163-16 16s7.163 16 16 16z"></path>
<path fill="#fff" d="M23.031 19.669c-0.018-0.037-0.035-0.067-0.051-0.091-0.262-0.438-0.763-0.976-1.503-1.613l-0.032-0.030h-0.008c-0.336-0.297-0.548-0.497-0.637-0.599-0.163-0.195-0.199-0.392-0.11-0.591 0.063-0.151 0.299-0.469 0.708-0.956 0.215-0.258 0.386-0.465 0.511-0.62 0.907-1.119 1.301-1.835 1.18-2.146l-0.047-0.073c-0.032-0.044-0.113-0.084-0.244-0.12s-0.299-0.043-0.504-0.018l-2.266 0.014c-0.037-0.012-0.089-0.011-0.157 0.004s-0.102 0.022-0.102 0.022l-0.039 0.018-0.031 0.022c-0.026 0.014-0.055 0.040-0.087 0.077s-0.058 0.079-0.078 0.128c-0.247 0.589-0.527 1.136-0.842 1.643-0.194 0.302-0.372 0.563-0.535 0.785s-0.299 0.384-0.409 0.489c-0.11 0.105-0.21 0.188-0.299 0.252s-0.157 0.090-0.204 0.080c-0.047-0.010-0.092-0.020-0.134-0.029-0.073-0.044-0.132-0.103-0.177-0.179s-0.075-0.17-0.090-0.285c-0.016-0.114-0.025-0.213-0.028-0.296s-0.001-0.2 0.004-0.351c0.005-0.151 0.008-0.253 0.008-0.307 0-0.185 0.004-0.386 0.012-0.602s0.014-0.388 0.020-0.515c0.005-0.127 0.008-0.26 0.008-0.402s-0.009-0.252-0.028-0.332c-0.018-0.080-0.046-0.158-0.082-0.234s-0.091-0.134-0.161-0.175c-0.071-0.041-0.159-0.074-0.264-0.099-0.278-0.058-0.632-0.090-1.062-0.095-0.976-0.010-1.602 0.049-1.88 0.175-0.11 0.053-0.21 0.127-0.299 0.219-0.094 0.107-0.108 0.165-0.039 0.175 0.315 0.044 0.537 0.148 0.669 0.314l0.047 0.088c0.037 0.063 0.073 0.175 0.11 0.336s0.060 0.338 0.071 0.533c0.026 0.355 0.026 0.66 0 0.913s-0.051 0.45-0.075 0.591c-0.024 0.141-0.059 0.255-0.106 0.343s-0.079 0.141-0.094 0.161-0.029 0.032-0.039 0.037c-0.068 0.024-0.139 0.037-0.212 0.037s-0.163-0.034-0.268-0.102c-0.105-0.068-0.214-0.162-0.326-0.281s-0.24-0.286-0.382-0.5c-0.142-0.214-0.288-0.467-0.441-0.759l-0.126-0.212c-0.079-0.136-0.186-0.335-0.323-0.595s-0.257-0.512-0.362-0.756c-0.042-0.102-0.105-0.18-0.189-0.234l-0.039-0.022c-0.026-0.019-0.068-0.040-0.126-0.062s-0.118-0.038-0.181-0.047l-2.156 0.014c-0.22 0-0.37 0.046-0.448 0.139l-0.031 0.044c-0.016 0.024-0.024 0.063-0.024 0.117s0.016 0.119 0.047 0.197c0.315 0.686 0.657 1.348 1.027 1.986s0.691 1.151 0.964 1.54c0.273 0.389 0.551 0.757 0.834 1.102s0.471 0.567 0.563 0.664c0.092 0.098 0.164 0.17 0.216 0.219l0.197 0.175c0.126 0.117 0.311 0.257 0.555 0.42s0.514 0.324 0.81 0.482c0.296 0.158 0.641 0.287 1.035 0.387s0.776 0.14 1.149 0.121h0.905c0.184-0.015 0.323-0.068 0.417-0.161l0.031-0.037c0.021-0.029 0.041-0.074 0.059-0.135s0.028-0.128 0.028-0.201c-0.005-0.209 0.012-0.398 0.051-0.566s0.084-0.294 0.134-0.38c0.050-0.085 0.106-0.157 0.169-0.215s0.108-0.094 0.134-0.106c0.026-0.012 0.047-0.021 0.063-0.026 0.126-0.039 0.274-0.001 0.445 0.113s0.33 0.256 0.48 0.423c0.149 0.168 0.329 0.356 0.539 0.566s0.393 0.365 0.551 0.467l0.157 0.088c0.105 0.058 0.241 0.112 0.409 0.161s0.314 0.061 0.441 0.036l2.014-0.029c0.199 0 0.354-0.031 0.464-0.091s0.176-0.128 0.197-0.201c0.021-0.073 0.022-0.156 0.004-0.248s-0.037-0.157-0.055-0.193z"></path>
</svg>
