<!-- Generated by IcoMoon.io -->
<svg version="1.1" xmlns="http://www.w3.org/2000/svg" width="32" height="32" viewBox="0 0 32 32">
<title>whatsapp</title>
<path fill="#953095" d="M16 32c8.837 0 16-7.163 16-16s-7.163-16-16-16c-8.837 0-16 7.163-16 16s7.163 16 16 16z"></path>
<path fill="#fff" d="M24.889 15.794c0 4.305-3.516 7.794-7.855 7.794-1.377 0-2.671-0.352-3.797-0.97l-4.349 1.382 1.418-4.182c-0.715-1.174-1.127-2.552-1.127-4.024 0-4.305 3.517-7.794 7.855-7.794s7.855 3.489 7.855 7.794zM17.034 9.241c-3.642 0-6.604 2.94-6.604 6.553 0 1.434 0.467 2.762 1.258 3.842l-0.825 2.434 2.538-0.807c1.043 0.685 2.292 1.084 3.633 1.084 3.641 0 6.604-2.939 6.604-6.552s-2.962-6.553-6.604-6.553zM20.736 17.417c0.135 0.065 0.226 0.108 0.265 0.172 0.048 0.080 0.048 0.462-0.112 0.909-0.161 0.446-0.947 0.876-1.3 0.908-0.060 0.006-0.111 0.017-0.162 0.030-0.249 0.060-0.526 0.126-2.149-0.507-1.809-0.707-3.001-2.462-3.247-2.824-0.020-0.030-0.034-0.050-0.041-0.060v0c-0.098-0.129-0.786-1.036-0.786-1.975 0-0.879 0.435-1.341 0.636-1.553 0.014-0.015 0.026-0.028 0.038-0.040 0.177-0.191 0.385-0.239 0.514-0.239 0.066 0 0.133 0.004 0.197 0.008 0.060 0.004 0.118 0.008 0.172 0.008 0.013 0 0.028-0.001 0.042-0.002 0.109-0.007 0.25-0.016 0.391 0.32 0.051 0.123 0.126 0.303 0.205 0.493 0.168 0.405 0.356 0.86 0.389 0.925 0.048 0.096 0.081 0.207 0.016 0.335-0.009 0.018-0.018 0.036-0.026 0.052-0.049 0.099-0.084 0.171-0.167 0.267-0.032 0.037-0.065 0.077-0.098 0.117-0.066 0.080-0.133 0.161-0.191 0.218-0.096 0.095-0.197 0.198-0.084 0.389s0.499 0.817 1.071 1.323c0.616 0.545 1.151 0.775 1.421 0.891 0.053 0.023 0.095 0.041 0.127 0.057 0.193 0.096 0.305 0.080 0.417-0.048s0.482-0.558 0.61-0.749c0.128-0.191 0.257-0.159 0.433-0.095s1.123 0.526 1.316 0.621c0.037 0.018 0.072 0.035 0.104 0.051z"></path>
</svg>
